# xmcd
#
# Track frame offsets:
#	150
#	17952
#	31143
#	42132
#	53239
#	73441
#	86464
#	100222
#	121058
#	145586
#	160461
#
# Disc length: 2361 seconds
#
# Revision: 0
# Processed by: cddbd v1.5.2PL0 Copyright (c) Steve Scherf et al.
# Submitted via: dBpowerAMP V4.0
#
DISCID=8f09370b
DTITLE=Philip Gibbs - The Petroleum Age
DYEAR=2011
DGENRE=Alt. Country
TTITLE0=The Petroleum Age
TTITLE1=Stephen F. Austin's Blues
TTITLE2=Sam Houston's Blues
TTITLE3=Gallow' Orphan
TTITLE4=To Block You from My Eyes
TTITLE5=In the Middle of the Evening
TTITLE6=Cold Comfort of Being Blind
TTITLE7=Sitting in an Alley
TTITLE8=Silver Dust
TTITLE9=20 Minutes at the Station
TTITLE10=I didn't Notice
EXTD=
EXTT0=
EXTT1=
EXTT2=
EXTT3=
EXTT4=
EXTT5=
EXTT6=
EXTT7=
EXTT8=
EXTT9=
EXTT10=
PLAYORDER=
